name Precision Landing04_filtered_grf.mot
datacolumns 37
datarows 14
range 0.580000 0.586500
endheader
time	1_ground_force_vx	1_ground_force_vy	1_ground_force_vz	1_ground_force_px	1_ground_force_py	1_ground_force_pz	1_ground_torque_x	1_ground_torque_y	1_ground_torque_z	2_ground_force_vx	2_ground_force_vy	2_ground_force_vz	2_ground_force_px	2_ground_force_py	2_ground_force_pz	2_ground_torque_x	2_ground_torque_y	2_ground_torque_z	3_ground_force_vx	3_ground_force_vy	3_ground_force_vz	3_ground_force_px	3_ground_force_py	3_ground_force_pz	3_ground_torque_x	3_ground_torque_y	3_ground_torque_z	4_ground_force_vx	4_ground_force_vy	4_ground_force_vz	4_ground_force_px	4_ground_force_py	4_ground_force_pz	4_ground_torque_x	4_ground_torque_y	4_ground_torque_z
            0.580000	            0.000000	            0.000000	            0.000000	           -0.030732	            0.000000	           -0.003067	            0.000000	            0.000000	           -0.000000	            0.000000	            0.000000	            0.000000	           -0.134152	            0.000000	            0.385921	            0.000000	           -0.000000	            0.000000	            0.839597	           -0.933027	           -1.139040	            0.352100	            1.256442	            1.892740	           -0.005797	            0.006341	            0.037458	           -3.875075	            0.742683	            2.815743	           -0.288724	            1.264949	            1.901082	           -0.035900	            0.134126	           -0.010074
            0.580500	            0.000000	            0.000000	            0.000000	           -0.030732	            0.000000	           -0.003067	            0.000000	            0.000000	           -0.000000	            0.000000	            0.000000	            0.000000	           -0.134152	            0.000000	            0.385921	            0.000000	           -0.000000	            0.000000	            0.839002	           -0.916517	           -1.169838	            0.352104	            1.256445	            1.892759	           -0.005527	            0.005477	            0.037962	           -3.907359	            0.743992	            2.826773	           -0.288716	            1.264948	            1.901098	           -0.036588	            0.135343	           -0.010328
            0.581000	            0.000000	            0.000000	            0.000000	           -0.030732	            0.000000	           -0.003067	            0.000000	            0.000000	           -0.000000	            0.000000	            0.000000	            0.000000	           -0.134152	            0.000000	            0.385921	            0.000000	           -0.000000	            0.000000	            0.839456	           -0.899808	           -1.199013	            0.352109	            1.256447	            1.892779	           -0.005237	            0.004664	            0.038381	           -3.941114	            0.745306	            2.838567	           -0.288708	            1.264946	            1.901115	           -0.037284	            0.136576	           -0.010621
            0.581500	            0.000000	            0.000000	            0.000000	           -0.030732	            0.000000	           -0.003067	            0.000000	            0.000000	           -0.000000	            0.000000	            0.000000	            0.000000	           -0.134152	            0.000000	            0.385921	            0.000000	           -0.000000	            0.000000	            0.840975	           -0.882938	           -1.226519	            0.352114	            1.256449	            1.892798	           -0.004930	            0.003901	            0.038712	           -3.976249	            0.746623	            2.850881	           -0.288701	            1.264945	            1.901132	           -0.037984	            0.137829	           -0.010951
            0.582000	            0.000000	            0.000000	            0.000000	           -0.030732	            0.000000	           -0.003067	            0.000000	            0.000000	           -0.000000	            0.000000	            0.000000	            0.000000	           -0.134152	            0.000000	            0.385921	            0.000000	           -0.000000	            0.000000	            0.843567	           -0.865943	           -1.252319	            0.352118	            1.256451	            1.892817	           -0.004608	            0.003191	            0.038954	           -4.012653	            0.747943	            2.863465	           -0.288693	            1.264943	            1.901148	           -0.038682	            0.139104	           -0.011317
            0.582500	            0.000000	            0.000000	            0.000000	           -0.030732	            0.000000	           -0.003067	            0.000000	            0.000000	           -0.000000	            0.000000	            0.000000	            0.000000	           -0.134152	            0.000000	            0.385921	            0.000000	           -0.000000	            0.000000	            0.847235	           -0.848859	           -1.276384	            0.352123	            1.256453	            1.892837	           -0.004272	            0.002534	            0.039105	           -4.050197	            0.749267	            2.876068	           -0.288685	            1.264942	            1.901165	           -0.039374	            0.140404	           -0.011717
            0.583000	           -0.000000	            0.000000	            0.000000	           -0.030732	            0.000000	           -0.003067	            0.000000	            0.000000	           -0.000000	            0.000000	            0.000000	            0.000000	           -0.134152	            0.000000	            0.385921	            0.000000	           -0.000000	            0.000000	            0.851956	           -0.831732	           -1.298704	            0.352128	            1.256454	            1.892854	           -0.003922	            0.001930	            0.039166	           -4.088818	            0.750572	            2.888311	           -0.288679	            1.264941	            1.901182	           -0.040058	            0.141731	           -0.012151
            0.583500	           -0.000000	            0.000000	            0.000000	           -0.030732	            0.000000	           -0.003067	            0.000000	            0.000000	           -0.000000	            0.000000	            0.000000	            0.000000	           -0.134152	            0.000000	            0.385921	            0.000000	           -0.000000	            0.000000	            0.857746	           -0.814586	           -1.319262	            0.352133	            1.256455	            1.892872	           -0.003563	            0.001378	            0.039137	           -4.128262	            0.751877	            2.900060	           -0.288673	            1.264940	            1.901198	           -0.040728	            0.143085	           -0.012614
            0.584000	           -0.000000	            0.000000	            0.000000	           -0.030732	            0.000000	           -0.003067	            0.000000	            0.000000	           -0.000000	            0.000000	            0.000000	            0.000000	           -0.134152	            0.000000	            0.385921	            0.000000	           -0.000000	            0.000000	            0.864597	           -0.797459	           -1.338058	            0.352139	            1.256456	            1.892889	           -0.003194	            0.000879	            0.039018	           -4.168347	            0.753181	            2.911061	           -0.288667	            1.264939	            1.901215	           -0.041382	            0.144469	           -0.013103
            0.584500	           -0.000000	            0.000000	            0.000000	           -0.030732	            0.000000	           -0.003067	            0.000000	            0.000000	           -0.000000	            0.000000	            0.000000	            0.000000	           -0.134152	            0.000000	            0.385921	            0.000000	           -0.000000	            0.000000	            0.872499	           -0.780385	           -1.355102	            0.352144	            1.256457	            1.892907	           -0.002817	            0.000431	            0.038813	           -4.208878	            0.754482	            2.921064	           -0.288661	            1.264938	            1.901232	           -0.042016	            0.145881	           -0.013615
            0.585000	           -0.000000	            0.000000	            0.000000	           -0.030732	            0.000000	           -0.003067	            0.000000	            0.000000	           -0.000000	            0.000000	            0.000000	            0.000000	           -0.134152	            0.000000	            0.385921	            0.000000	           -0.000000	            0.000000	            0.881438	           -0.763401	           -1.370414	            0.352149	            1.256458	            1.892924	           -0.002435	            0.000032	            0.038523	           -4.249651	            0.755777	            2.929830	           -0.288655	            1.264937	            1.901248	           -0.042628	            0.147322	           -0.014146
            0.585500	           -0.000000	            0.000000	            0.000000	           -0.030732	            0.000000	           -0.003067	            0.000000	            0.000000	           -0.000000	            0.000000	            0.000000	            0.000000	           -0.134152	            0.000000	            0.385921	            0.000000	           -0.000000	            0.000000	            0.891389	           -0.746548	           -1.384031	            0.352154	            1.256458	            1.892940	           -0.002047	           -0.000318	            0.038152	           -4.290537	            0.757059	            2.936999	           -0.288651	            1.264937	            1.901266	           -0.043215	            0.148790	           -0.014694
            0.586000	           -0.000000	            0.000000	            0.000000	           -0.030732	            0.000000	           -0.003067	            0.000000	            0.000000	           -0.000000	            0.000000	            0.000000	            0.000000	           -0.134152	            0.000000	            0.385921	            0.000000	           -0.000000	            0.000000	            0.902358	           -0.729864	           -1.395980	            0.352159	            1.256458	            1.892956	           -0.001656	           -0.000622	            0.037705	           -4.331230	            0.758334	            2.942475	           -0.288648	            1.264937	            1.901283	           -0.043775	            0.150282	           -0.015254
            0.586500	           -0.000000	            0.000000	            0.000000	           -0.030732	            0.000000	           -0.003067	            0.000000	            0.000000	           -0.000000	            0.000000	            0.000000	            0.000000	           -0.134152	            0.000000	            0.385921	            0.000000	           -0.000000	            0.000000	            0.914339	           -0.713389	           -1.406308	            0.352163	            1.256458	            1.892972	           -0.001263	           -0.000883	            0.037185	           -4.371507	            0.759602	            2.946054	           -0.288645	            1.264936	            1.901300	           -0.044306	            0.151797	           -0.015823
